<?xml version="1.0" encoding="UTF-8" standalone="no"?>
<!-- Created with Inkscape (http://www.inkscape.org/) -->

<svg
   width="512"
   height="512"
   viewBox="0 0 512 512"
   version="1.1"
   id="svg1"
   xmlns:xlink="http://www.w3.org/1999/xlink"
   xmlns="http://www.w3.org/2000/svg"
   xmlns:svg="http://www.w3.org/2000/svg">
  <defs
     id="defs1">
    <linearGradient
       id="linearGradient6">
      <stop
         style="stop-color:#150063;stop-opacity:1;"
         offset="0"
         id="stop6" />
      <stop
         style="stop-color:#120732;stop-opacity:1;"
         offset="1"
         id="stop7" />
    </linearGradient>
    <linearGradient
       xlink:href="#linearGradient6"
       id="linearGradient7"
       x1="256.39038"
       y1="-2.2547011"
       x2="256.39038"
       y2="513.10284"
       gradientUnits="userSpaceOnUse" />
  </defs>
  <g
     id="layer1">
    <rect
       style="fill:url(#linearGradient7);stroke:none;stroke-width:2;paint-order:markers fill stroke"
       id="rect6"
       width="515.35754"
       height="514.71332"
       x="-1.2883939"
       y="-1.9325907" />
    <path
       style="fill:#f5f5f5;fill-opacity:1;stroke:#f5f5f0;stroke-width:40.4307;stroke-linecap:round;stroke-linejoin:round;stroke-dasharray:none;stroke-opacity:1;paint-order:markers stroke fill"
       id="path1"
       d="M 395.73825,235.13187 131.0797,386.64416 132.19548,81.686987 Z"
       transform="matrix(0.54295496,-0.00189528,0.00190027,0.5443851,167.29294,128.77324)" />
    <path
       d="M 260.25598,84.644531 A 171.35638,171.35638 0 0 0 88.89856,256 171.35638,171.35638 0 0 0 260.25598,427.35547 171.35638,171.35638 0 0 0 273.58801,426.83008 171.35638,171.35638 0 0 1 115.60364,256 171.35638,171.35638 0 0 1 273.58801,85.169922 171.35638,171.35638 0 0 0 260.25598,84.644531 Z"
       style="fill:#f5f5f5;stroke:#f5f5f0;stroke-width:10;stroke-linecap:round;stroke-linejoin:round;paint-order:markers stroke fill"
       id="path3" />
  </g>
</svg>
